HIERARCHY
ROOT Hips
{
  OFFSET -125.086 92.215 135.881
  CHANNELS 6 Xposition Yposition Zposition Zrotation Xrotation Yrotation
  JOINT LeftUpLeg
  {
    OFFSET 8.64259 1.95398 -2.38835
    CHANNELS 3 Zrotation Xrotation Yrotation
    JOINT LeftLeg
    {
      OFFSET 43.7702 0 0
      CHANNELS 3 Zrotation Xrotation Yrotation
      JOINT LeftFoot
      {
        OFFSET 40.6238 0 0
        CHANNELS 3 Zrotation Xrotation Yrotation
        JOINT LeftToeBase
        {
          OFFSET 12.7242 0 0
          CHANNELS 3 Zrotation Xrotation Yrotation
          End Site
          {
            OFFSET 0 0 0
          }
        }
      }
    }
  }
  JOINT RightUpLeg
  {
    OFFSET -8.2249 1.95398 -2.59336
    CHANNELS 3 Zrotation Xrotation Yrotation
    JOINT RightLeg
    {
      OFFSET 43.5653 0 0
      CHANNELS 3 Zrotation Xrotation Yrotation
      JOINT RightFoot
      {
        OFFSET 40.6238 0 0
        CHANNELS 3 Zrotation Xrotation Yrotation
        JOINT RightToeBase
        {
          OFFSET 12.7242 0 0
          CHANNELS 3 Zrotation Xrotation Yrotation
          End Site
          {
            OFFSET 0 0 0
          }
        }
      }
    }
  }
  JOINT Spine
  {
    OFFSET 0.165834 0.87714 6.61349
    CHANNELS 3 Zrotation Xrotation Yrotation
    JOINT Spine1
    {
      OFFSET 7.38963 1.71661e-005 0
      CHANNELS 3 Zrotation Xrotation Yrotation
      JOINT Spine2
      {
        OFFSET 11.9445 1.14441e-005 0
        CHANNELS 3 Zrotation Xrotation Yrotation
        JOINT Spine3
        {
          OFFSET 14.7254 4.19617e-005 0
          CHANNELS 3 Zrotation Xrotation Yrotation
          JOINT Spine4
          {
            OFFSET 10.9679 0 0
            CHANNELS 3 Zrotation Xrotation Yrotation
            JOINT RightShoulder
            {
              OFFSET 2.46616 -1.6653 3.69651
              CHANNELS 3 Zrotation Xrotation Yrotation
              JOINT RightArm
              {
                OFFSET 13.0012 0 0
                CHANNELS 3 Zrotation Xrotation Yrotation
                JOINT RightForeArm
                {
                  OFFSET 28.7848 1.52588e-005 0
                  CHANNELS 3 Zrotation Xrotation Yrotation
                  JOINT RightHand
                  {
                    OFFSET 26.5688 1.52588e-005 0
                    CHANNELS 3 Zrotation Xrotation Yrotation
                    End Site
                    {
                      OFFSET 0 0 0
                    }
                  }
                }
              }
            }
            JOINT LeftShoulder
            {
              OFFSET 2.38034 -1.29275 -3.7523
              CHANNELS 3 Zrotation Xrotation Yrotation
              JOINT LeftArm
              {
                OFFSET 16.3182 6.10352e-005 0
                CHANNELS 3 Zrotation Xrotation Yrotation
                JOINT LeftForeArm
                {
                  OFFSET 27.0901 0 0
                  CHANNELS 3 Zrotation Xrotation Yrotation
                  JOINT LeftHand
                  {
                    OFFSET 24.5451 1.52588e-005 0
                    CHANNELS 3 Zrotation Xrotation Yrotation
                    End Site
                    {
                      OFFSET 0 0 0
                    }
                  }
                }
              }
            }
            JOINT Neck
            {
              OFFSET 5.0226 -0.0266342 0
              CHANNELS 3 Zrotation Xrotation Yrotation
              JOINT Head
              {
                OFFSET 6.69363 2.86102e-005 0
                CHANNELS 3 Zrotation Xrotation Yrotation
                End Site
                {
                  OFFSET 0 0 0
                }
              }
            }
          }
        }
      }
    }
  }
}
MOTION
Frames:	18
Frame Time:	0.0416667
-103.938 82.3001 41.7247 104.059 -87.5408 108.806 -168.973 58.3713 94.305 -102.162 14.9814 3.24758 58.3998 6.46712 13.4147 43.7446 -1.25974 0.976967 166.218 35.6415 70.7773 -59.9621 -16.3251 2.27459 52.7649 3.35395 13.1172 70.0534 -8.12104 -5.78965 0.295037 11.9704 -92.0643 2.91117 -0.223544 -4.03655 -8.76597 -0.400836 -4.02284 -31.2529 0.998977 -3.91755 -11.2402 0.998977 -3.91756 106.483 -51.2243 -75.5347 10.9622 16.6424 -55.4055 -0.692628 -20.1462 -7.4805 -15.096 -0.504994 -1.33177 -79.532 -43.7028 94.0891 -25.3509 -29.9438 10.4789 12.3344 73.0446 0.0197994 -0.761512 -0.169116 -9.95583 3.39275 -2.29553 -18.7666 9.90046 4.57172 29.3013 
-109.176 84.4483 41.2368 53.2988 -86.9898 58.655 -157.754 52.48 77.3832 -85.4656 22.7625 -0.96901 55.9996 3.32648 13.3884 46.6398 -1.68042 -4.02311 161.516 37.2062 74.9569 -57.6349 -20.4552 5.85079 50.2081 4.21021 10.6202 68.9591 -7.31717 -3.79767 0.479727 11.8997 -92.2238 3.05574 0.0799183 -4.34703 -8.62245 -0.111295 -4.34635 -31.1037 1.38157 -4.12282 -11.0911 1.38157 -4.12282 103.594 -47.8583 -79.871 14.7819 11.4253 -58.5797 -0.255525 -11.68 -13.2064 -14.0204 -0.309201 -2.71593 -80.2513 -44.5158 92.9499 -34.7898 -25.3938 2.56787 10.3439 80.3654 0.0248586 -1.21276 -0.169097 -12.032 3.68224 -2.66093 -20.0756 10.0283 4.611 29.9499 
-113.788 85.9976 41.0597 -13.3836 -85.762 -8.57731 -159.185 45.0705 72.9248 -62.179 21.4519 -7.62475 54.0508 0.539267 10.0214 45.2622 -1.56261 -5.37217 159.571 41.8145 77.4579 -57.7883 -19.7967 5.94121 41.0229 7.59875 21.8815 59.1528 -3.62277 8.41371 0.792775 11.7246 -92.0289 3.42079 0.775916 -3.96579 -8.25608 0.600759 -3.99604 -30.7523 1.93121 -3.55018 -10.7396 1.93121 -3.55019 102.625 -45.8864 -81.4089 11.9231 4.84839 -61.5887 2.26897 -13.557 -17.4564 -9.82853 -0.0407232 -4.85386 -80.4275 -45.1617 92.6983 -38.836 -17.2483 -0.573079 3.94465 75.8708 0.01249 0.987573 -0.265734 -10.5293 0.631121 -2.15683 -17.0491 13.2895 4.46114 26.5187 
-118.453 87.0195 41.8779 -53.5032 -83.6739 -46.0619 -166.8 39.1094 75.9341 -47.6936 18.5161 -8.39429 50.7695 -2.41578 9.43916 42.5833 -1.26393 -3.4362 162.816 41.3097 79.9517 -57.7309 -17.65 4.31946 37.5965 8.24741 23.2506 58.2749 -4.70391 0.462855 1.17946 11.6615 -92.0197 3.55973 1.54975 -3.94834 -8.1165 1.37462 -4.01258 -30.6229 2.66414 -3.30114 -10.6103 2.66415 -3.30113 101.878 -44.7984 -82.6429 13.797 -1.19414 -62.2935 -6.68913 -27.9604 -29.3473 -1.74764 -0.0173308 -6.46919 -80.4267 -45.5513 92.7203 -40.9032 -12.2538 -3.1667 0.901169 67.4388 0.00735696 4.72578 -0.423253 -9.71801 -2.87783 -1.23804 -14.6765 15.2328 4.75736 25.1067 
-123.619 86.8278 42.7339 -81.2396 -82.8695 -69.4447 -172.429 33.3251 79.1901 -47.5066 19.9644 -4.15785 59.3032 4.91843 17.4779 19.4481 2.41987 -7.96084 168.991 37.6654 81.0766 -57.3167 -11.2006 1.89852 43.706 6.04043 15.5351 57.0303 -5.77895 -8.73643 1.2965 11.678 -92.0753 3.5303 1.76192 -4.05583 -8.146 1.58188 -4.12927 -30.6537 2.89879 -3.33998 -10.641 2.89879 -3.33998 101.514 -45.6032 -83.2403 15.3534 -8.61817 -60.5424 -20.1926 -34.2852 -45.5788 6.31475 -0.229654 -8.42495 -79.9372 -46.4442 93.5429 -41.7584 -11.9803 -6.69145 2.3643 65.8213 0.00878266 9.04865 -0.614473 -9.60563 -2.72705 0.167713 -15.2688 13.0718 5.81124 25.6198 
-129.421 85.214 43.1162 -86.1336 -83.4411 -70.833 -175.733 32.7044 82.7282 -52.752 18.9481 0.277933 66.424 14.0231 26.4827 25.4831 1.10605 -5.55865 173.211 34.2658 81.9183 -51.5044 -5.7461 0.138198 49.3429 3.86943 15.6952 59.2482 -6.03348 -7.19743 1.00241 11.426 -91.9049 4.02791 1.23469 -3.7382 -7.64792 1.06908 -3.78883 -30.1544 2.30057 -3.19522 -10.1418 2.30057 -3.19522 102.832 -49.0582 -81.1124 11.6291 -17.3397 -59.828 -21.006 -29.1845 -53.6057 5.76998 -0.22784 -8.66177 -79.3202 -47.2143 94.5456 -40.5094 -13.6657 -9.80824 4.36334 66.9196 0.0170491 10.7344 -0.53722 -8.23593 1.33131 1.47276 -21.1098 7.19256 7.60458 29.6859 
-135.643 83.9501 43.2886 -42.2239 -85.8339 -27.9195 -177.173 39.7196 84.5751 -63.0156 22.9449 2.07577 65.0688 13.3051 26.851 34.5715 -0.282214 -3.22075 175.456 32.1631 79.7725 -41.4799 -10.0715 -1.17727 46.5919 5.04186 18.1883 64.6396 -7.5021 -8.23833 0.330067 11.0609 -91.3983 4.74382 0.0866341 -2.74235 -6.9301 -0.0340948 -2.74353 -29.4433 0.906515 -2.58974 -9.43062 0.906514 -2.58976 103.903 -51.7838 -79.5165 9.61551 -23.53 -56.8455 -24.1173 -22.1641 -62.6617 5.8936 -0.251938 -9.00029 -80.0852 -46.2399 93.2956 -40.504 -13.7336 -15.5317 6.34315 64.9527 0.0257 7.53194 -0.466582 -8.71121 6.43508 1.97924 -29.317 2.60123 9.87469 35.8393 
-141.26 83.4735 43.7263 40.3888 -85.613 54.4945 179.808 43.4683 87.72 -70.5482 21.5723 3.74996 64.4309 11.1779 20.0147 39.9182 -0.919318 -2.31764 173.503 29.289 79.8134 -40.0626 -14.4995 -0.121623 50.5802 3.89493 17.7283 65.9665 -6.76116 -3.93622 -0.0288087 11.0042 -91.2278 4.8529 -0.561701 -2.40041 -6.82009 -0.666774 -2.3734 -29.3375 0.185458 -2.45824 -9.32488 0.185456 -2.45824 105.177 -53.1388 -77.6489 8.77769 -26.6402 -52.1417 -25.0827 -15.3907 -68.744 3.52588 -0.199784 -10.2531 -81.0672 -45.6784 91.7031 -40.5399 -12.9586 -24.3394 8.48147 63.847 0.0295002 2.89091 -0.364797 -10.3967 8.11127 0.69865 -28.7598 2.67573 8.67037 32.1624 
-146.357 83.2013 43.9136 76.9411 -85.3082 91.0093 176.927 42.2555 91.2804 -73.6766 21.5216 5.27626 64.6734 11.8304 19.9899 45.1929 -1.37743 0.725825 170.09 29.2145 81.5439 -46.3727 -14.8429 2.46669 57.5322 1.29948 14.4301 61.6313 -4.97564 0.829528 0.068289 11.0223 -91.0115 4.82249 -0.278593 -1.98036 -6.84991 -0.365456 -1.96618 -29.3731 0.32934 -1.97255 -9.36046 0.329349 -1.97255 106.173 -54.0436 -76.2206 8.15146 -27.987 -46.9924 -25.893 -13.1707 -71.5001 -5.27135 0.092915 -8.0544 -80.1683 -47.0706 93.2051 -36.1046 -9.38619 -29.2422 4.7659 54.7772 0.0125005 5.16647 -0.381282 -8.78098 4.63639 0.241237 -37.4048 3.95984 10.2754 42.906 
-150.472 83.335 43.8123 84.4198 -85.1047 98.3615 173.029 41.1057 94.2409 -73.7582 19.6869 6.88035 65.1146 12.4246 19.5101 49.7697 -1.53891 3.69471 169.046 30.9983 83.2064 -50.7473 -13.486 3.116 57.3518 1.9869 18.3899 59.6115 -4.49315 1.79704 0.174186 10.9299 -90.7942 5.01173 0.0208662 -1.55874 -6.66015 -0.0477419 -1.55815 -29.1884 0.488311 -1.48044 -9.17573 0.488315 -1.48043 106.939 -54.5564 -75.1288 7.70041 -27.3541 -43.3126 -24.3269 -13.4826 -70.7384 -10.6498 0.0289565 -5.61907 -79.3446 -47.7037 94.5216 -32.0145 -5.07703 -30.7043 8.14201 40.9741 -12.4571 10.9724 -0.441939 -7.38916 2.57333 0.080816 -43.2821 5.13582 11.6286 49.5337 
-153.884 84.3522 44.1848 95.156 -84.6581 108.801 170.329 37.6228 96.2618 -71.2683 18.4484 8.57546 65.7986 12.82 18.5189 52.6627 -1.62381 4.37387 168.589 29.3836 85.0415 -50.7992 -13.9956 3.88952 58.6467 1.21956 15.9778 58.2718 -4.13459 2.84959 0.162919 10.8891 -90.6457 5.09397 0.0590944 -1.26833 -6.57759 0.00322345 -1.26971 -29.1082 0.437516 -1.19195 -9.09558 0.437522 -1.19196 107.317 -54.4178 -74.56 9.71411 -24.1957 -39.8273 -25.3846 -17.3406 -67.4374 -8.36476 -0.0960306 -4.2326 -79.3975 -47.3906 94.4287 -31.9521 -3.71941 -32.4251 15.2803 39.694 -24.6897 16.6895 -0.679696 -7.81795 1.31713 0.306335 -46.654 5.828 12.7844 54.0716 
-156.839 85.5056 44.5822 99.8867 -82.8371 113.571 168.354 34.0355 97.7063 -68.0049 17.482 10.2562 66.7396 13.3617 16.9551 53.76 -1.60541 5.04151 168.416 26.0555 86.7595 -48.9386 -13.1926 4.94979 62.2198 -0.529742 13.1501 54.8244 -3.78065 2.03422 0.0322898 10.7816 -90.658 5.30761 -0.2082 -1.28741 -6.36395 -0.26466 -1.27703 -28.894 0.188303 -1.29048 -8.88134 0.188314 -1.29048 107.906 -54.3024 -73.6787 11.9037 -20.2967 -36.8153 -22.3833 -21.4039 -60.3414 -5.87717 -0.023935 -5.13347 -79.0777 -47.4779 94.9325 -32.8487 -3.54629 -34.499 25.8786 45.1085 -35.8369 17.4865 -0.943176 -9.24888 -0.857034 0.641481 -47.2749 7.74527 13.4786 55.4421 
-158.93 86.6652 44.8353 101.763 -82.14 114.76 168.838 30.7066 97.6662 -63.243 17.4811 11.1525 66.8257 13.778 17.6012 54.7838 -1.60435 5.42415 168.745 24.6686 87.2952 -47.5223 -11.2103 5.00509 60.7921 0.567104 15.6736 54.3636 -3.72246 2.00829 -0.0603986 10.6134 -90.6115 5.64362 -0.375902 -1.1921 -6.0278 -0.428002 -1.1744 -28.5586 -0.000287488 -1.24995 -8.54593 -0.000278102 -1.24995 108.227 -54.0289 -73.1751 15.4188 -15.2407 -34.2335 -20.672 -26.9856 -52.8447 -6.48437 -0.0863199 -3.94219 -78.7709 -48.2327 95.4278 -31.3399 -2.81124 -34.7274 35.4199 46.1473 -48.0301 16.0612 -0.797994 -8.72768 -1.66546 0.607171 -46.6386 8.46627 13.3578 55.2278 
-160.606 87.9893 45.2336 108.849 -82.6146 121.586 171.213 26.9457 98.1474 -57.9634 17.6587 11.4782 67.5685 14.4894 18.0498 53.6758 -1.55232 5.52496 169.717 22.1349 88.3387 -44.5099 -10.215 4.9241 60.5546 0.771503 16.268 51.9923 -3.35838 2.32312 -0.0159099 10.4575 -90.5991 5.95586 -0.283441 -1.16972 -5.71557 -0.334637 -1.15612 -28.2465 0.0811783 -1.20084 -8.23384 0.081182 -1.20084 108.141 -53.7221 -73.2705 18.9634 -9.6443 -32.2511 -17.8374 -31.8741 -44.2362 -7.84102 -0.188091 -2.54907 -78.6 -48.0482 95.6897 -29.2486 -1.19722 -33.9367 35.106 43.1518 -51.4962 14.1198 -0.59301 -7.83225 -1.2943 0.549748 -44.3288 7.76051 12.4286 52.9882 
-162.227 89.4151 45.7308 118.227 -82.9196 130.045 173.102 23.9656 98.4192 -53.7803 17.6379 11.4434 66.6858 13.0834 15.6201 55.2723 -1.48775 6.57787 170.905 19.1894 88.9212 -41.0306 -9.31144 4.47425 60.5866 0.760577 16.0205 49.4885 -3.05365 1.91318 0.0220201 10.3267 -90.5598 6.21831 -0.192355 -1.09517 -5.45306 -0.240374 -1.08565 -27.9846 0.145653 -1.10236 -7.9719 0.145651 -1.10236 108.468 -53.741 -72.786 21.55 -4.30696 -30.9596 -14.1091 -34.7266 -35.099 -8.58656 -0.242197 -1.99892 -78.8906 -47.2744 95.2216 -28.9421 -0.345162 -33.3363 33.0636 42.0991 -50.4596 11.2239 -0.619197 -8.8892 0.474572 0.112743 -40.7083 5.25207 10.4231 49.0344 
-163.518 90.7317 46.1331 126.008 -83.2956 136.059 175.26 21.3641 97.8827 -49.2142 18.7893 10.7793 65.0563 11.4122 14.1237 57.8438 -1.24173 8.85353 172.164 17.0934 88.7085 -38.1645 -8.68663 3.42252 60.6098 0.737595 15.53 47.0103 -2.74085 1.45808 0.0151572 10.1517 -90.4567 6.56902 -0.163938 -0.893174 -5.10221 -0.203091 -0.885105 -27.6349 0.112055 -0.901163 -7.62227 0.112057 -0.901163 108.32 -53.4487 -72.9734 23.4211 0.189663 -29.2639 -10.7873 -34.8604 -27.4601 -7.64745 -0.247562 -1.50252 -78.5363 -47.4378 95.7804 -28.3674 0.262833 -32.9661 29.0813 41.587 -46.856 6.98284 -0.574035 -10.2317 2.21409 -0.0268802 -34.4466 2.79777 8.18634 42.0369 
-164.548 91.8292 46.6024 135.453 -84.0119 144.598 177.504 19.0595 98.1768 -45.0342 19.6033 10.1438 64.6115 10.5084 12.1967 60.1596 -0.734803 12.1265 173.562 15.2099 89.2872 -35.1011 -8.83884 2.33011 59.6972 0.983452 14.8733 45.9523 -2.66344 0.119129 0.0480307 9.95529 -90.4082 6.9623 -0.0790687 -0.801173 -4.70889 -0.114246 -0.796921 -27.2421 0.165359 -0.787898 -7.22946 0.165368 -0.787898 108.095 -53.2244 -73.2848 23.8851 2.71296 -27.7891 -6.22992 -31.6426 -20.0994 -6.91995 -0.209319 -1.78777 -78.4599 -47.398 95.8998 -28.1671 0.122609 -31.8799 24.6048 40.6603 -42.1949 3.33357 -0.465938 -11.8921 4.83781 -0.0926107 -29.6124 -1.49004 6.166 36.5565 
-165.459 92.7772 47.1076 149.551 -85.0992 157.319 179.61 16.8724 98.021 -40.3297 19.2339 9.13892 63.7693 9.35989 10.1916 59.9758 -0.724045 12.2269 174.733 13.8872 89.2517 -32.3325 -8.67793 1.01448 59.1648 1.26084 15.561 44.6635 -2.49631 -0.601407 0.0148792 9.70789 -90.2933 7.4574 -0.0972283 -0.573414 -4.21366 -0.122375 -0.568585 -26.7478 0.079589 -0.576139 -6.73516 0.0795946 -0.576131 107.457 -52.6499 -74.1827 23.2861 3.32732 -26.5632 -2.13655 -28.989 -13.9112 -7.09586 -0.211528 -1.83739 -77.4759 -48.1061 97.4405 -27.5474 -0.337683 -30.5523 21.7155 41.1829 -38.6978 0.73393 -0.2976 -12.0023 6.5708 0.718155 -23.2373 -4.66353 5.09503 28.8632 
